<svg width="15" height="10" viewBox="0 0 15 10" fill="none" xmlns="http://www.w3.org/2000/svg">
<path d="M0.751246 0.407735L0.433838 0.697716V4.61747V8.53722L0.751246 8.82721L1.06865 9.11719H7.4387H13.8087L14.1262 8.82721L14.4436 8.53722V4.61747V0.697716L14.1262 0.407735L13.8087 0.117753H7.4387H1.06865L0.751246 0.407735ZM10.2297 3.31755C8.78495 4.63747 7.52626 5.7174 7.4387 5.7174C7.35114 5.7174 6.09245 4.63747 4.6477 3.31755L2.02088 0.917703H7.4387H12.8565L10.2297 3.31755ZM2.9731 6.13737L1.30945 7.66728V4.61747V1.56766L2.9731 3.09757L4.6477 4.61747L2.9731 6.13737ZM13.568 4.63747V7.66728L11.9043 6.14737L10.2297 4.61747L11.8715 3.11756C12.769 2.29762 13.5242 1.61766 13.5351 1.61766C13.557 1.61766 13.568 2.97757 13.568 4.63747ZM6.08151 5.90739C7.17602 6.84733 7.71233 6.83733 8.81778 5.88739L9.52921 5.27743L11.1929 6.79733L12.8565 8.31724H7.4387H2.02088L3.66264 6.81733C4.56014 5.98738 5.31535 5.31743 5.34819 5.31743C5.37008 5.31743 5.69843 5.58741 6.08151 5.90739Z" fill="#4B4B4B"/>
</svg>
