<svg width="15" height="19" viewBox="0 0 15 19" fill="none" xmlns="http://www.w3.org/2000/svg">
<path d="M4.33868 0.558313C3.14804 1.1022 1.80073 2.17565 1.26807 3.00578C0.15576 4.73762 0.15576 7.5286 1.26807 10.4627C2.69371 14.2413 4.77734 16.8605 7.18996 17.9196C8.17694 18.349 8.45894 18.4062 9.57125 18.4062C10.2606 18.4062 11.2632 18.3061 11.7645 18.1916C14.9135 17.4473 15.2581 16.3023 13.2215 13.3968C12.4225 12.2661 11.4825 11.4503 10.7932 11.2928C10.1509 11.1497 9.64958 11.2213 8.5216 11.622C7.78528 11.8797 7.76962 11.8797 7.36229 11.5934C6.51631 11.0209 5.57632 9.00281 5.77999 8.22992C5.85832 7.97229 6.17165 7.7576 7.01763 7.38547C8.4746 6.7414 8.7566 6.32633 8.7566 4.89506C8.7566 3.89317 8.45894 2.60503 7.97328 1.40276C7.40929 0.0144291 6.15598 -0.286137 4.33868 0.558313ZM6.32831 1.54589C6.53197 1.78921 7.09596 3.46379 7.22129 4.2653C7.42496 5.48188 7.26829 5.73951 5.93665 6.31202C4.887 6.78434 4.73034 6.89884 4.44835 7.49997C4.21335 7.9866 4.15068 8.33011 4.21335 8.8883C4.30735 9.80432 5.075 11.3787 5.84265 12.2232C6.81397 13.3109 7.75395 13.4684 9.39892 12.8243C10.3232 12.4665 10.6052 12.581 11.4669 13.6115C12.4695 14.8138 13.0492 15.9158 12.8455 16.2164C12.5949 16.5885 10.9812 17.0036 9.72791 17.0179C8.81926 17.0322 8.49027 16.975 7.83228 16.6601C6.32831 15.9445 4.99667 14.5275 3.85302 12.4235C2.14539 9.31769 1.5814 6.52671 2.22372 4.50862C2.52138 3.56398 3.68069 2.4619 5.05933 1.81783C6.10898 1.31688 6.10898 1.31688 6.32831 1.54589Z" fill="#4B4B4B"/>
</svg>
