<svg width="15" height="22" viewBox="0 0 15 22" fill="none" xmlns="http://www.w3.org/2000/svg">
<path d="M5.20859 0.369827C1.12915 1.74896 -0.614045 5.57442 1.07524 9.36704C1.54249 10.4014 1.90191 10.9104 5.31641 15.3269C6.95178 17.4284 7.22135 17.7075 7.67062 17.7075C8.1199 17.7075 8.38947 17.4284 10.0248 15.3269C14.4098 9.6954 14.877 8.84165 14.877 6.46101C14.877 3.86692 13.4034 1.76538 10.7437 0.599684C9.37788 -0.00779343 6.64627 -0.122721 5.20859 0.369827ZM10.0608 1.91315C11.2289 2.40569 12.3431 3.39079 12.9182 4.45798C13.2417 5.06545 13.3315 5.49233 13.3315 6.55951C13.3315 7.75805 13.2596 8.00432 12.6486 9.10435C12.2892 9.7775 11.0851 11.4686 9.98889 12.8641C8.89266 14.2597 7.92222 15.5239 7.83236 15.6552C7.68859 15.8687 7.65265 15.8687 7.50888 15.6552C7.41903 15.5239 6.44859 14.2597 5.35235 12.8641C4.25612 11.4686 3.07003 9.79391 2.72858 9.17002C1.63234 7.15057 1.68625 5.39382 2.92626 3.71915C4.50771 1.58478 7.49091 0.829538 10.0608 1.91315Z" fill="#4B4B4B"/>
<path d="M6.35837 3.34117C5.51373 3.58744 4.66909 4.27701 4.25576 5.06509C3.93228 5.67256 3.87836 6.03376 3.93228 6.95319C3.98619 7.92187 4.07604 8.16814 4.54329 8.70994C5.62156 9.92489 6.86156 10.3846 8.3891 10.1548C9.25172 10.0234 10.0604 9.53086 10.7972 8.70994C11.2824 8.15172 11.3543 7.92187 11.4082 6.90393C11.4622 5.90242 11.4082 5.60689 11.0309 4.983C10.4019 3.88297 9.41346 3.32475 8.01171 3.24266C7.38272 3.20982 6.62794 3.25908 6.35837 3.34117ZM8.89229 4.93374C9.12592 5.06509 9.46737 5.39345 9.64708 5.68898C10.8871 7.52783 8.37113 9.59653 6.39431 8.38158C5.69344 7.9547 5.20822 6.92035 5.38793 6.26362C5.7833 4.83523 7.56243 4.16208 8.89229 4.93374Z" fill="#4B4B4B"/>
<path d="M2.09962 15.8687C0.85962 16.6075 0.590054 17.0508 1.14716 17.4941C1.97383 18.1344 7.31124 21.0732 7.67066 21.0732C8.06602 21.0732 13.9246 17.8224 14.32 17.3791C14.6974 16.9523 14.4098 16.5582 13.2417 15.8522C12.0376 15.1298 11.6602 15.0313 11.3008 15.3597C10.9055 15.7209 11.0492 16.3119 11.6243 16.6075C11.9118 16.7552 12.1634 16.9194 12.1634 16.9687C12.1455 17.0179 11.1391 17.6254 9.91704 18.3314L7.67066 19.5956L5.42427 18.3314C4.20224 17.6254 3.19586 17.0179 3.17789 16.9687C3.17789 16.9194 3.42948 16.7552 3.71702 16.6075C4.2921 16.3119 4.43586 15.7209 4.0405 15.3597C3.68108 15.0313 3.32166 15.1298 2.09962 15.8687Z" fill="#4B4B4B"/>
</svg>
